<?xml version="1.0" encoding="UTF-8"?>
<svg width="512" height="512" version="1.1" viewBox="0 0 135.47 135.47" xmlns="http://www.w3.org/2000/svg">
 <g transform="translate(0 -161.53)">
  <g transform="matrix(.79399 0 0 -.79399 67.942 281.03)">
   <g stroke="#000b00">
    <g transform="translate(47.979 103.26)" stroke-width="1.6894">
     <path transform="matrix(.36459 0 0 -.36459 -141.58 55.267)" d="m32.904 77.188c-1.5058 0-2.7441 1.2336-2.7441 2.7422v71.656c0 1.5086 1.2383 2.7441 2.7441 2.7441h134.17c-0.62401 0.50387-1.0332 1.2655-1.0332 2.125v275c0 1.5086 1.2364 2.7422 2.7422 2.7422h82.453c1.5086 0 2.7422-1.2336 2.7422-2.7422v-275c0-0.85948-0.40945-1.6211-1.0332-2.125h132.63c1.5086 0 2.7441-1.2356 2.7441-2.7441v-71.656c0-1.5086-1.2356-2.7422-2.7441-2.7422z" fill="#3baa35" stroke="#000b00" stroke-width="4.6337"/>
    </g>
    <path transform="matrix(.36459 0 0 -.36459 -93.597 158.53)" d="m256.72 154.33c-0.75482 0-1.4403 0.30888-1.9375 0.80664-0.12386 0.12399-0.23543 0.25873-0.33398 0.4043-5.2e-4 7.6e-4 -1e-3 1e-3 -2e-3 2e-3 -0.29685 0.43794-0.4707 0.96554-0.4707 1.5312v274.93c0 7e-3 2e-3 0.0129 2e-3 0.0195v0.0508c0 1.5086 1.2336 2.7422 2.7422 2.7422h222.38c1.5086 0 2.7441-1.2336 2.7441-2.7422v-70.73c0-1.5086-1.2356-2.7422-2.7441-2.7422h-137.18v-127.13h43.658c1.5086 0 2.7422-1.2336 2.7422-2.7422v-71.656c0-1.5086-1.2336-2.7422-2.7422-2.7422h-46.402z" fill="#575756" stroke-width="4.6337"/>
   </g>
  </g>
 </g>
</svg>
